-
http:// www. Speed. Cd       
http:// www. Speed. Cd       the fast  and The Hottest Private Tracker on the net

Please Seed back to make the speed Faster!!!

and don't forget to visit      ...... www. Speed. Cd..........
-[img]http://img852.imageshack.us/img852/1667/theroommatebluraycovera.jpg[/img]

[color=blue][size=5][b]The.Roommate.2011.BDRip.XVID.AC3.HQ.Hive-CM8[/b][/size][/color]


[b]Thx Hive

CM8 Doing It Right The First Time :D


Why download a touched up rip of a rip BRrip
Get the real deal BDRip

Source Bluray

Video: 720x304 @bitrate 2000 2pass
Audio: DTS to AC3 5.1 @448
Sample: yes included
Subs: yes english in srt /subs[/b]


[url]http://www.imdb.com/title/tt1265990/[/url]


General
Complete name                    : The.Roommate.2011.BDRip.XVID.AC3.HQ.Hive-CM8.avi
Format                           : AVI
Format/Info                      : Audio Video Interleave
File size                        : 1.57 GiB
Duration                         : 1h 31mn
Overall bit rate                 : 2 458 Kbps
Writing application              : Nandub v1.0rc2
Writing library                  : Nandub build 1853/release

Video
ID                               : 0
Format                           : MPEG-4 Visual
Format profile                   : Advanced Simple@L5
Format settings, BVOP            : Yes
Format settings, QPel            : Yes
Format settings, GMC             : No warppoints
Format settings, Matrix          : Default (H.263)
Muxing mode                      : Packed bitstream
Codec ID                         : XVID
Codec ID/Hint                    : XviD
Duration                         : 1h 31mn
Bit rate                         : 2 000 Kbps
Width                            : 720 pixels
Height                           : 304 pixels
Display aspect ratio             : 2.40:1
Frame rate                       : 23.976 fps
Color space                      : YUV
Chroma subsampling               : 4:2:0
Bit depth                        : 8 bits
Scan type                        : Progressive
Bits/(Pixel*Frame)               : 0.381
Stream size                      : 1.28 GiB (81%)
Writing library                  : XviD 1.2.1 (UTC 2008-12-04)

Audio
ID                               : 1
Format                           : AC-3
Format/Info                      : Audio Coding 3
Mode extension                   : CM (complete main)
Codec ID                         : 2000
Duration                         : 1h 31mn
Bit rate mode                    : Constant
Bit rate                         : 448 Kbps
Channel(s)                       : 6 channels
Channel positions                : Front: L C R, Side: L R, LFE
Sampling rate                    : 48.0 KHz
Bit depth                        : 16 bits
Stream size                      : 292 MiB (18%)
Alignment                        : Split accross interleaves
Interleave, duration             : 42 ms (1.00 video frame)
Interleave, preload duration     : 500 ms


Leighton Meester	 ... 	Rebecca
Minka Kelly	... 	Sara Matthews
Cam Gigandet	... 	Stephen
Alyson Michalka	... 	Tracy Morgan
Danneel Ackles	... 	Irene (as Danneel Harris)
Frances Fisher	... 	Alison Evans
Tomas Arana	... 	Jeff Evans
Billy Zane	... 	Professor Roberts


College student Sara finds that her new roommate Rebecca 
has an obsession with her, which quickly turns violent. 


[img]http://img189.imageshack.us/img189/374/15372650.png[/img]
[img]http://img713.imageshack.us/img713/5295/rorox.png[/img]
[img]http://img195.imageshack.us/img195/4844/rororo.png[/img]
[img]http://img690.imageshack.us/img690/1449/rorororo.png[/img]
[img]http://img713.imageshack.us/img713/65/rororororo.png[/img]
[img]http://img822.imageshack.us/img822/4567/rorororororo.png[/img]
[img]http://img31.imageshack.us/img31/1797/rororororororo.png[/img]
[img]http://img845.imageshack.us/img845/898/rorororororororo.png[/img]





Greetz

ViSiON,LUSi,SANTi,MAGNET,THC,T0XiCiNK,LKRG,IMAGiNE,WBZ,FLAWL3SS,NOVA
Vik,Rapeseed,D2U,SAFC,goldadvance,MEMORY100,KaN1vE,Unevano,Pinnz,Wayne,Mr Hive
and all P2P groups 
Great Work Guys :D

CM8@hushmail.com